<svg xmlns="http://www.w3.org/2000/svg" xmlns:xlink="http://www.w3.org/1999/xlink" viewBox="0 0 1488.13 1413.86"><defs><style>.cls-1{fill:none;}.cls-2{clip-path:url(#clip-path);}.cls-3{opacity:0.17;}.cls-4{fill:#6b6b6b;}.cls-5{fill:#efefef;}.cls-6{fill:#3c6686;}</style><clipPath id="clip-path" transform="translate(-100.42 448.09)"><rect class="cls-1" width="1083.97" height="1007.19"/></clipPath></defs><g id="Layer_2" data-name="Layer 2"><g id="Layer_1-2" data-name="Layer 1"><g class="cls-2"><g class="cls-3"><rect class="cls-4" y="138.83" width="1174.99" height="1.71"/><rect class="cls-4" y="215.98" width="1174.99" height="1.71"/><rect class="cls-4" y="293.14" width="1174.99" height="1.71"/><rect class="cls-4" y="370.29" width="1174.99" height="1.71"/><rect class="cls-4" y="447.44" width="1174.99" height="1.71"/><rect class="cls-4" y="524.6" width="1174.99" height="1.71"/><rect class="cls-4" y="601.75" width="1174.99" height="1.71"/><rect class="cls-4" y="678.9" width="1174.99" height="1.71"/><rect class="cls-4" y="756.06" width="1174.99" height="1.71"/><rect class="cls-4" y="833.21" width="1174.99" height="1.71"/><rect class="cls-4" y="910.36" width="1174.99" height="1.71"/><rect class="cls-4" y="987.51" width="1174.99" height="1.71"/><rect class="cls-4" y="1064.67" width="1174.99" height="1.71"/><rect class="cls-4" y="1141.82" width="1174.99" height="1.71"/><rect class="cls-4" y="1218.97" width="1174.99" height="1.71"/><rect class="cls-4" x="46.57" y="57.31" width="1.71" height="1229.56"/><rect class="cls-4" x="123.72" y="57.31" width="1.71" height="1229.56"/><rect class="cls-4" x="200.88" y="57.31" width="1.71" height="1229.56"/><rect class="cls-4" x="278.03" y="57.31" width="1.71" height="1229.56"/><rect class="cls-4" x="355.18" y="57.31" width="1.71" height="1229.56"/><rect class="cls-4" x="432.34" y="57.31" width="1.71" height="1229.56"/><rect class="cls-4" x="509.49" y="57.31" width="1.71" height="1229.56"/><rect class="cls-4" x="586.64" y="57.31" width="1.71" height="1229.56"/><rect class="cls-4" x="663.79" y="57.31" width="1.71" height="1229.56"/><rect class="cls-4" x="740.95" y="57.31" width="1.71" height="1229.56"/><rect class="cls-4" x="818.1" y="57.31" width="1.71" height="1229.56"/><rect class="cls-4" x="895.25" y="57.31" width="1.71" height="1229.56"/><rect class="cls-4" x="972.41" y="57.31" width="1.71" height="1229.56"/><rect class="cls-4" x="1049.56" y="57.31" width="1.71" height="1229.56"/><rect class="cls-4" x="1126.71" y="57.31" width="1.71" height="1229.56"/></g><rect class="cls-5" x="13.34" y="-0.88" width="1289.95" height="72.85" transform="translate(67.26 924) rotate(-45)"/><path class="cls-6" d="M228,519.18l-53.33-53.32,914-913.95L1142-394.76Zm-49.7-53.32,49.7,49.7,910.32-910.32-49.7-49.71Z" transform="translate(-100.42 448.09)"/><rect class="cls-5" x="459.93" y="445.71" width="1289.95" height="72.85" transform="translate(-117.72 1370.6) rotate(-45)"/><path class="cls-6" d="M674.6,965.77l-53.33-53.32,914-913.95,53.33,53.33Zm-49.7-53.32,49.7,49.7L1584.92,51.83l-49.7-49.71Z" transform="translate(-100.42 448.09)"/><rect class="cls-5" x="162.21" y="147.98" width="1289.95" height="72.85" transform="translate(5.6 1072.87) rotate(-45)"/><path class="cls-6" d="M376.87,668.05l-53.32-53.33,913.94-913.95,53.33,53.33Zm-49.7-53.33,49.7,49.7L1287.2-245.9l-49.71-49.7Z" transform="translate(-100.42 448.09)"/><rect class="cls-5" x="311.07" y="296.85" width="1289.95" height="72.85" transform="translate(-56.06 1221.73) rotate(-45)"/><path class="cls-6" d="M525.74,816.91l-53.33-53.33,913.95-913.94L1439.68-97ZM476,763.58l49.71,49.71L1436.06-97l-49.7-49.7Z" transform="translate(-100.42 448.09)"/></g></g></g></svg>