<svg xmlns="http://www.w3.org/2000/svg" xmlns:xlink="http://www.w3.org/1999/xlink" viewBox="0 0 1949.89 1852.58"><defs><style>.cls-1{fill:none;}.cls-2{clip-path:url(#clip-path);}.cls-3{opacity:0.17;}.cls-4{fill:#6b6b6b;}.cls-5{fill:#efefef;}.cls-6{fill:#3c6686;}</style><clipPath id="clip-path" transform="translate(-87.63 344.84)"><rect class="cls-1" width="1083.97" height="1817.06"/></clipPath></defs><g id="Layer_2" data-name="Layer 2"><g id="Layer_1-2" data-name="Layer 1"><g class="cls-2"><g class="cls-3"><rect class="cls-4" y="181.91" width="1539.58" height="2.24"/><rect class="cls-4" y="283" width="1539.58" height="2.24"/><rect class="cls-4" y="384.1" width="1539.58" height="2.24"/><rect class="cls-4" y="485.19" width="1539.58" height="2.24"/><rect class="cls-4" y="586.28" width="1539.58" height="2.24"/><rect class="cls-4" y="687.38" width="1539.58" height="2.24"/><rect class="cls-4" y="788.47" width="1539.58" height="2.24"/><rect class="cls-4" y="889.56" width="1539.58" height="2.24"/><rect class="cls-4" y="990.66" width="1539.58" height="2.24"/><rect class="cls-4" y="1091.75" width="1539.58" height="2.24"/><rect class="cls-4" y="1192.84" width="1539.58" height="2.24"/><rect class="cls-4" y="1293.93" width="1539.58" height="2.24"/><rect class="cls-4" y="1395.03" width="1539.58" height="2.24"/><rect class="cls-4" y="1496.12" width="1539.58" height="2.24"/><rect class="cls-4" y="1597.21" width="1539.58" height="2.24"/><rect class="cls-4" x="61.02" y="75.09" width="2.24" height="1611.09"/><rect class="cls-4" x="162.11" y="75.09" width="2.24" height="1611.09"/><rect class="cls-4" x="263.21" y="75.09" width="2.24" height="1611.09"/><rect class="cls-4" x="364.3" y="75.09" width="2.24" height="1611.09"/><rect class="cls-4" x="465.39" y="75.09" width="2.24" height="1611.09"/><rect class="cls-4" x="566.49" y="75.09" width="2.24" height="1611.09"/><rect class="cls-4" x="667.58" y="75.09" width="2.24" height="1611.09"/><rect class="cls-4" x="768.67" y="75.09" width="2.24" height="1611.09"/><rect class="cls-4" x="869.77" y="75.09" width="2.24" height="1611.09"/><rect class="cls-4" x="970.86" y="75.09" width="2.24" height="1611.09"/><rect class="cls-4" x="1071.95" y="75.09" width="2.24" height="1611.09"/><rect class="cls-4" x="1173.04" y="75.09" width="2.24" height="1611.09"/><rect class="cls-4" x="1274.14" y="75.09" width="2.24" height="1611.09"/><rect class="cls-4" x="1375.23" y="75.09" width="2.24" height="1611.09"/><rect class="cls-4" x="1476.32" y="75.09" width="2.24" height="1611.09"/></g><rect class="cls-5" x="-26.46" y="241.14" width="1690.22" height="95.46" transform="translate(-52.11 1008.32) rotate(-45)"/><path class="cls-6" d="M254.82,922.57,184.94,852.7,1382.48-344.84,1452.35-275ZM189.69,852.7l65.13,65.12L1447.61-275l-65.13-65.12Z" transform="translate(-87.63 344.84)"/><rect class="cls-5" x="558.7" y="826.3" width="1690.22" height="95.46" transform="translate(-294.5 1593.48) rotate(-45)"/><path class="cls-6" d="M840,1507.74l-69.87-69.88L1967.65,240.32l69.87,69.88Zm-65.12-69.88L840,1503,2032.77,310.2l-65.12-65.13Z" transform="translate(-87.63 344.84)"/><rect class="cls-5" x="168.59" y="436.19" width="1690.22" height="95.46" transform="translate(-132.91 1203.37) rotate(-45)"/><path class="cls-6" d="M449.87,1117.63,380,1047.75,1577.54-149.79l69.87,69.88Zm-65.12-69.88,65.12,65.13L1642.66-79.91,1577.54-145Z" transform="translate(-87.63 344.84)"/><rect class="cls-5" x="363.65" y="631.25" width="1690.22" height="95.46" transform="translate(-213.7 1398.43) rotate(-45)"/><path class="cls-6" d="M644.93,1312.68l-69.88-69.87L1772.59,45.27l69.87,69.87Zm-65.13-69.87,65.13,65.12L1837.72,115.14,1772.59,50Z" transform="translate(-87.63 344.84)"/></g></g></g></svg>