<svg xmlns="http://www.w3.org/2000/svg" viewBox="0 0 996.34 1507.74"><defs><style>.cls-1{opacity:0.17;}.cls-2{fill:#6b6b6b;}.cls-3{fill:#efefef;}.cls-4{fill:#3c6686;}</style></defs><g id="Layer_2" data-name="Layer 2"><g id="Layer_1-2" data-name="Layer 1"><g class="cls-1"><rect class="cls-2" y="39.26" width="996.34" height="2.24"/><rect class="cls-2" y="140.35" width="996.34" height="2.24"/><rect class="cls-2" y="241.44" width="996.34" height="2.24"/><rect class="cls-2" y="342.54" width="996.34" height="2.23"/><rect class="cls-2" y="443.63" width="996.34" height="2.24"/><rect class="cls-2" y="544.72" width="996.34" height="2.24"/><rect class="cls-2" y="645.81" width="996.34" height="2.24"/><rect class="cls-2" y="746.91" width="996.34" height="2.24"/><rect class="cls-2" y="848" width="996.34" height="2.24"/><rect class="cls-2" y="949.09" width="996.34" height="2.24"/><rect class="cls-2" y="1050.19" width="996.34" height="2.24"/><rect class="cls-2" y="1151.28" width="996.34" height="2.24"/><rect class="cls-2" y="1252.37" width="996.34" height="2.24"/><rect class="cls-2" x="61.02" width="2.24" height="1341.33"/><rect class="cls-2" x="162.12" width="2.24" height="1341.33"/><rect class="cls-2" x="263.21" width="2.24" height="1341.33"/><rect class="cls-2" x="364.3" width="2.24" height="1341.33"/><rect class="cls-2" x="465.4" width="2.24" height="1341.33"/><rect class="cls-2" x="566.49" width="2.24" height="1341.33"/><rect class="cls-2" x="667.58" width="2.24" height="1341.33"/><rect class="cls-2" x="768.68" width="2.23" height="1341.33"/><rect class="cls-2" x="869.77" width="2.24" height="1341.33"/><rect class="cls-2" x="970.86" width="2.24" height="1341.33"/></g><polygon class="cls-3" points="996.34 0 996.34 91.04 973.1 114.28 970.86 116.52 947.03 140.35 944.79 142.59 872.01 215.37 770.91 316.47 768.68 318.7 744.85 342.54 742.62 344.77 669.82 417.57 568.73 518.66 566.49 520.9 542.67 544.72 540.43 546.96 467.64 619.75 167.19 920.2 164.36 917.37 162.12 915.13 99.69 852.7 306.58 645.81 364.3 588.09 366.54 585.85 405.43 546.96 407.67 544.72 508.76 443.63 566.49 385.9 568.73 383.66 607.62 344.77 609.85 342.54 669.82 282.57 708.7 243.68 710.94 241.44 768.68 183.7 770.91 181.47 809.79 142.59 812.03 140.35 910.88 41.5 913.12 39.26 952.38 0 996.34 0"/><path class="cls-4" d="M973.1,111.91l-2.24,2.24-26.2,26.2-2.24,2.24L872,213,770.91,314.1l-2.23,2.23-26.21,26.21-2.23,2.23-70.42,70.42-30.68,30.68-70.41,70.41-2.24,2.24-26.2,26.2L538.05,547l-70.41,70.41L237,848h2.38L340.48,746.91h2.37L467.64,622.12,542.8,547l2.24-2.24,21.45-21.45,2.24-2.24,75.16-75.16,25.93-25.93L745,344.77l2.23-2.23,21.46-21.46,2.23-2.23L872,217.75l75.16-75.16,2.24-2.24,21.45-21.45,2.24-2.24,23.24-23.24V88.67ZM708.7,243.68l-38.88,38.89-2.24,2.24v2.37l43.5-43.5ZM973.1,111.91l-2.24,2.24-26.2,26.2-2.24,2.24L872,213,770.91,314.1l-2.23,2.23-26.21,26.21-2.23,2.23-70.42,70.42-30.68,30.68-70.41,70.41-2.24,2.24-26.2,26.2L538.05,547l-70.41,70.41L167.19,917.82,164.36,915l-2.24-2.24-60.06-60,4.7-4.7,55.36-55.36,2.24-2.24L309,645.81l55.35-55.35,2.24-2.24L407.8,547l2.24-2.24L511.13,443.63l55.36-55.36,43.5-43.5,2.23-2.23,101.1-101.1,55.36-55.36,2.23-2.23,41.26-41.26,2.24-2.24L915.5,39.26l37-37L954.76,0H950l-2.27,2.27-37,37L809.66,140.35l-2.24,2.24L770.91,179.1l-2.23,2.23-60.11,60.11-101.1,101.1-2.23,2.23-38.75,38.75-60.11,60.11L405.29,544.72,403.05,547l-36.51,36.51-2.24,2.24-60.1,60.1L164.36,785.65l-2.24,2.24L102,848l-4.7,4.7,64.81,64.8,2.24,2.24,2.83,2.83L467.64,622.12,542.8,547l2.24-2.24,21.45-21.45,2.24-2.24,75.16-75.16,25.93-25.93L745,344.77l2.23-2.23,21.46-21.46,2.23-2.23L872,217.75l75.16-75.16,2.24-2.24,21.45-21.45,2.24-2.24,23.24-23.24V88.67Z"/><polygon class="cls-3" points="996.34 1126.37 996.34 1261.37 752.35 1505.36 684.85 1437.86 872.01 1250.7 969.19 1153.52 970.86 1151.85 996.34 1126.37"/><path class="cls-4" d="M973.1,1149.61V1152l.71-.71,22.53-22.53v-2.38Zm-2.24-.13-1.8,1.8-97,97-2.24,2.24L682.48,1437.86l69.87,69.88,244-244V1259l-244,244-65.12-65.13,183.25-183.25,1.53-1.53.71-.71,98.14-98.14.71-.71,1.53-1.53.71-.71,22.53-22.53V1124Z"/><polygon class="cls-3" points="996.34 346.16 996.34 481.16 973.1 504.4 970.86 506.64 932.77 544.72 930.53 546.96 872.01 605.48 869.77 607.72 831.68 645.81 829.44 648.05 770.91 706.58 768.68 708.81 730.58 746.91 667.58 809.91 629.49 848 627.25 850.24 568.73 908.76 566.49 911 528.4 949.09 465.4 1012.09 427.3 1050.19 425.06 1052.43 366.54 1110.95 362.24 1115.25 294.74 1047.75 366.54 975.95 391.16 951.33 492.25 850.24 494.49 848 568.73 773.76 593.34 749.15 694.44 648.05 696.68 645.81 795.53 546.96 797.77 544.72 872.01 470.48 896.63 445.87 898.87 443.63 973.1 369.4 996.34 346.16"/><path class="cls-4" d="M896.49,443.63l-2.24,2.24L872,468.11v2.37l-2.24,2.24v2.38L899,445.87l2.24-2.24,95.1-95.1v-4.75ZM795.53,547l-24.62,24.62V574l27-27Zm101-103.33-2.24,2.24L795.4,544.72,793.16,547l-24.48,24.48-74.37,74.37L591,749.15l-22.24,22.24L492.12,848l-2.24,2.24L366.54,973.58l-2.24,2.24-71.93,71.93,2.44,2.44,2.24,2.24,65.19,65.2,2.06-2.06,2.24-2.24,60.9-60.9,2.24-2.24,35.72-35.72,65.38-65.38,35.71-35.71,2.24-2.24,60.9-60.9,2.24-2.24,35.71-35.71L733,746.91l35.72-35.72,2.23-2.23L872,607.86l60.9-60.9,2.24-2.24L970.86,509l25.48-25.48v-4.75l-25.48,25.48L930.4,544.72,928.16,547,872,603.11l-101.1,101.1-2.23,2.23-40.47,40.47-60.63,60.63L627.12,848l-2.24,2.24-56.15,56.15-2.24,2.24L526,949.09l-60.63,60.63-40.47,40.47-2.24,2.24-56.15,56.15-2.24,2.24-2.06,2.06-60.44-60.45-2.24-2.24-2.44-2.44,67.18-67.18,2.24-2.24L494.63,850.24l2.24-2.24,71.86-71.86,27-27L699.06,645.81l69.62-69.62L797.91,547l2.24-2.24L899,445.87l2.24-2.24,95.1-95.1v-4.75Z"/><polygon class="cls-3" points="996.34 736.27 996.34 871.27 973.1 894.51 970.86 896.75 918.52 949.09 869.77 997.84 817.42 1050.19 768.68 1098.93 716.33 1151.28 667.58 1200.03 615.24 1252.37 613 1254.61 568.73 1298.88 557.3 1310.31 489.8 1242.81 568.73 1163.88 579.09 1153.52 669.82 1062.79 680.18 1052.43 770.91 961.7 781.28 951.33 872.01 860.6 882.37 850.24 973.1 759.51 983.46 749.15 996.34 736.27"/><path class="cls-4" d="M983.32,746.91l-2.24,2.24-8,8L880,850.24l-8,8L778.9,951.33l-8,8-2.23,2.23v2.38l-88.5,88.5-10.36,10.36v2.37l12.73-12.73,88.36-88.36,12.74-12.74L872,863l12.73-12.73,88.36-88.36,12.73-12.73,2.24-2.24,8.27-8.27v-4.75Zm0,0-2.24,2.24-8,8L880,850.24l-8,8L778.9,951.33l-8,8-93.11,93.11-8,8-93.11,93.11-8,8-81.31,81.31,11.8,11.8,58.08,58.07,60.31-60.31,50-50,51.12-51.12,50-50,51.11-51.11,50-50,51.12-51.12,50-50,25.48-25.48v-4.75l-25.48,25.48-54.72,54.72-46.37,46.37L815,1050.19l-46.36,46.36L714,1151.28l-46.37,46.37-54.72,54.72-55.56,55.56L504,1254.61l-11.8-11.8,76.56-76.56,12.73-12.73,88.36-88.36,12.73-12.73,88.36-88.36,12.74-12.74L872,863l12.73-12.73,88.36-88.36,12.73-12.73,2.24-2.24,8.27-8.27v-4.75Z"/></g></g></svg>