<svg xmlns="http://www.w3.org/2000/svg" viewBox="0 0 1741.98 1655.04"><defs><style>.cls-1{opacity:0.17;}.cls-2{fill:#6b6b6b;}.cls-3{fill:#efefef;}.cls-4{fill:#3c6686;}</style></defs><g id="Layer_2" data-name="Layer 2"><g id="Layer_1-2" data-name="Layer 1"><g class="cls-1"><rect class="cls-2" y="162.51" width="1375.42" height="2"/><rect class="cls-2" y="252.83" width="1375.42" height="2"/><rect class="cls-2" y="343.14" width="1375.42" height="2"/><rect class="cls-2" y="433.46" width="1375.42" height="2"/><rect class="cls-2" y="523.77" width="1375.42" height="2"/><rect class="cls-2" y="614.08" width="1375.42" height="2"/><rect class="cls-2" y="704.4" width="1375.42" height="2"/><rect class="cls-2" y="794.71" width="1375.42" height="2"/><rect class="cls-2" y="885.02" width="1375.42" height="2"/><rect class="cls-2" y="975.34" width="1375.42" height="2"/><rect class="cls-2" y="1065.65" width="1375.42" height="2"/><rect class="cls-2" y="1155.97" width="1375.42" height="2"/><rect class="cls-2" y="1246.28" width="1375.42" height="2"/><rect class="cls-2" y="1336.59" width="1375.42" height="2"/><rect class="cls-2" y="1426.91" width="1375.42" height="2"/><rect class="cls-2" x="54.52" y="67.08" width="2" height="1439.3"/><rect class="cls-2" x="144.83" y="67.08" width="2" height="1439.3"/><rect class="cls-2" x="235.14" y="67.08" width="2" height="1439.3"/><rect class="cls-2" x="325.46" y="67.08" width="2" height="1439.3"/><rect class="cls-2" x="415.77" y="67.08" width="2" height="1439.3"/><rect class="cls-2" x="506.08" y="67.08" width="2" height="1439.3"/><rect class="cls-2" x="596.4" y="67.08" width="2" height="1439.3"/><rect class="cls-2" x="686.71" y="67.08" width="2" height="1439.3"/><rect class="cls-2" x="777.03" y="67.08" width="2" height="1439.3"/><rect class="cls-2" x="867.34" y="67.08" width="2" height="1439.3"/><rect class="cls-2" x="957.65" y="67.08" width="2" height="1439.3"/><rect class="cls-2" x="1047.97" y="67.08" width="2" height="1439.3"/><rect class="cls-2" x="1138.28" y="67.08" width="2" height="1439.3"/><rect class="cls-2" x="1228.59" y="67.08" width="2" height="1439.3"/><rect class="cls-2" x="1318.91" y="67.08" width="2" height="1439.3"/></g><rect class="cls-3" x="-101.93" y="523.5" width="1509.99" height="85.28" transform="translate(-209.04 627.61) rotate(-45)"/><path class="cls-4" d="M149.36,1132.27l-62.42-62.42L1156.78,0l62.43,62.42Zm-58.18-62.42L149.36,1128,1215,62.42,1156.78,4.24Z"/><rect class="cls-3" x="420.84" y="1046.27" width="1509.99" height="85.28" transform="translate(-425.58 1150.38) rotate(-45)"/><path class="cls-4" d="M672.13,1655l-62.42-62.42L1679.55,522.77,1742,585.19ZM614,1592.62l58.18,58.18L1737.73,585.19,1679.55,527Z"/><rect class="cls-3" x="72.33" y="697.75" width="1509.99" height="85.28" transform="translate(-281.22 801.86) rotate(-45)"/><path class="cls-4" d="M323.61,1306.53l-62.42-62.42L1331,174.26l62.42,62.42Zm-58.18-62.42,58.18,58.18L1389.22,236.68,1331,178.5Z"/><rect class="cls-3" x="246.59" y="872.01" width="1509.99" height="85.28" transform="translate(-353.4 976.12) rotate(-45)"/><path class="cls-4" d="M497.87,1480.79l-62.42-62.43L1505.3,348.51l62.42,62.43Zm-58.18-62.43,58.18,58.18L1563.48,410.94l-58.18-58.18Z"/></g></g></svg>