<?xml version="1.0" encoding="utf-8"?>
<!-- Generator: Adobe Illustrator 24.0.1, SVG Export Plug-In . SVG Version: 6.00 Build 0)  -->
<svg version="1.1" id="Layer_1" xmlns="http://www.w3.org/2000/svg" xmlns:xlink="http://www.w3.org/1999/xlink" x="0px" y="0px"
	 viewBox="0 0 299 299" style="enable-background:new 0 0 299 299;" xml:space="preserve">
<style type="text/css">
	.st0{fill:#3B6286;}
	.st1{fill:#FFFFFF;}
</style>
<path class="st0" d="M208.5,299h-118C40.5,299,0,258.5,0,208.5v-118C0,40.5,40.5,0,90.5,0h118c50,0,90.5,40.5,90.5,90.5v118
	C299,258.5,258.5,299,208.5,299z"/>
<g>
	<g>
		<g>
			<rect x="114.8" y="85.9" class="st1" width="7.2" height="127.2"/>
		</g>
	</g>
	<g>
		<g>
			<rect x="177.1" y="85.9" class="st1" width="7.2" height="127.2"/>
		</g>
	</g>
	<g>
		<g>
			<rect x="135.5" y="85.9" class="st1" width="7.2" height="127.2"/>
		</g>
	</g>
	<g>
		<g>
			<rect x="156.3" y="85.9" class="st1" width="7.2" height="127.2"/>
		</g>
	</g>
	<g>
		<g>
			<g>
				<rect x="83.4" y="44.4" class="st1" width="132.3" height="7.2"/>
			</g>
		</g>
	</g>
	<g>
		<g>
			<g>
				<rect x="100.6" y="65.1" class="st1" width="97.7" height="7.2"/>
			</g>
		</g>
	</g>
	<g>
		<g>
			<g>
				<rect x="83.4" y="247.4" class="st1" width="132.3" height="7.2"/>
			</g>
		</g>
	</g>
	<g>
		<g>
			<g>
				<rect x="100.6" y="226.7" class="st1" width="97.7" height="7.2"/>
			</g>
		</g>
	</g>
</g>
</svg>
