<svg xmlns="http://www.w3.org/2000/svg" viewBox="0 0 144.1 87.42"><defs><style>.cls-1{fill:#3b6587;}</style></defs><g id="Layer_2" data-name="Layer 2"><g id="Layer_1-2" data-name="Layer 1"><path class="cls-1" d="M78.68.46v.87c-2.31,0-4.46,1.44-4.46,4.72V27.21c0,12.35-7.58,16.65-15.94,17.88l-.2-.87c4.41-1.59,8.5-5.89,8.5-17V12.3c0-9.64,0-11-4.2-11V.46Z"/><path class="cls-1" d="M107,32.8S104.58,37,96.33,37c-9.94,0-14-3.18-14-3.18V24h.87c1.13,3.13,4,12.15,13.17,12.15,5.48,0,7.17-7.43.92-12l-7.89-5c-7.27-4.56-10-9.68-5.74-15.27,0,0,2.51-3.89,10.61-3.89C103,0,107.4,2.46,107.4,2.46v8.61h-.87c-1-2.72-4.1-10.2-12.3-10.2C88.7.87,86.7,7.64,93.36,12l7.89,5.23c6.76,4.46,9.58,10,5.74,15.58"/><path class="cls-1" d="M143.39,25.77l.71,8.05c-3.79,2.51-7.78,3.18-13.27,3.18-11,0-17.78-8.3-17.78-18.5S119.87,0,130.83,0c5.28,0,10,.51,13.27,3.13l-.71,8h-.87C139.65,4.25,136.67.87,130.83.87c-5.68,0-8.55,3.59-8.55,17.63s3,17.63,8.55,17.63c6.15,0,10.35-4.77,11.69-10.36Z"/><rect class="cls-1" x="12.99" y="17.61" width="2.97" height="52.55"/><rect class="cls-1" x="38.72" y="17.61" width="2.97" height="52.55"/><rect class="cls-1" x="21.56" y="17.61" width="2.97" height="52.55"/><rect class="cls-1" x="30.14" y="17.61" width="2.97" height="52.55"/><rect class="cls-1" y="0.45" width="54.66" height="2.97"/><rect class="cls-1" x="7.14" y="9.03" width="40.37" height="2.97"/><rect class="cls-1" y="84.34" width="54.66" height="2.97"/><rect class="cls-1" x="7.14" y="75.76" width="40.37" height="2.97"/><path class="cls-1" d="M63.74,52.55v5.74a4.07,4.07,0,0,1-.12,1.06,1.88,1.88,0,0,1-.4.74,1.64,1.64,0,0,1-.71.43,3.46,3.46,0,0,1-1.09.15,2.45,2.45,0,0,1-1.12-.23,1.88,1.88,0,0,1-.68-.6,2.39,2.39,0,0,1-.33-.87,5.5,5.5,0,0,1-.09-1H60c0,.17,0,.38,0,.61a2.18,2.18,0,0,0,.16.68,1.3,1.3,0,0,0,.44.55,1.42,1.42,0,0,0,.9.23,2.16,2.16,0,0,0,.73-.11,1,1,0,0,0,.46-.37,1.61,1.61,0,0,0,.23-.64A5.08,5.08,0,0,0,63,58V52.55Z"/><path class="cls-1" d="M69.84,60.51v-1h0a2,2,0,0,1-.8.88,2.39,2.39,0,0,1-1.18.31,2.52,2.52,0,0,1-.93-.15,1.6,1.6,0,0,1-.63-.43,1.83,1.83,0,0,1-.35-.68,3.63,3.63,0,0,1-.11-.92V54.76h.7v3.75a1.88,1.88,0,0,0,.37,1.18,1.79,1.79,0,0,0,2,.2,1.58,1.58,0,0,0,.54-.52,2.36,2.36,0,0,0,.31-.74,3.47,3.47,0,0,0,.1-.85v-3h.7v5.75Z"/><path class="cls-1" d="M76.84,60.51V59.42h0a1.62,1.62,0,0,1-.32.51,2.38,2.38,0,0,1-.5.4,2.63,2.63,0,0,1-.6.25,2.28,2.28,0,0,1-.63.09,2.52,2.52,0,0,1-1.14-.24,2.36,2.36,0,0,1-.81-.66,3,3,0,0,1-.48-1,4.39,4.39,0,0,1-.15-1.16,4.47,4.47,0,0,1,.15-1.17,3,3,0,0,1,.48-1,2.36,2.36,0,0,1,.81-.66,2.4,2.4,0,0,1,1.14-.25,2.59,2.59,0,0,1,.63.08,2,2,0,0,1,.58.24,2,2,0,0,1,.47.4,1.61,1.61,0,0,1,.32.54h0v-3.3h.7v8Zm-3.86-2a2.7,2.7,0,0,0,.34.79,1.82,1.82,0,0,0,.58.56,1.6,1.6,0,0,0,.86.22,1.82,1.82,0,0,0,.94-.22,1.8,1.8,0,0,0,.63-.56,2.25,2.25,0,0,0,.34-.79,3.62,3.62,0,0,0,0-1.77,2.29,2.29,0,0,0-.34-.78,1.82,1.82,0,0,0-.63-.57,1.92,1.92,0,0,0-.94-.22,1.69,1.69,0,0,0-.86.22,1.86,1.86,0,0,0-.58.57,2.75,2.75,0,0,0-.34.78,4,4,0,0,0,0,1.77Z"/><path class="cls-1" d="M80.15,52.55v1.13h-.71V52.55Zm0,2.21v5.75h-.71V54.76Z"/><path class="cls-1" d="M85.63,55.55a1.54,1.54,0,0,0-1.09-.37,1.67,1.67,0,0,0-.88.22A1.77,1.77,0,0,0,83,56a2.41,2.41,0,0,0-.38.79,3.15,3.15,0,0,0,0,1.79,2.32,2.32,0,0,0,.38.79,1.8,1.8,0,0,0,.63.56,1.76,1.76,0,0,0,.88.21,1.58,1.58,0,0,0,.61-.12,1.73,1.73,0,0,0,.88-.86,1.79,1.79,0,0,0,.18-.66h.7a2.64,2.64,0,0,1-.77,1.63,2.24,2.24,0,0,1-1.6.59,2.72,2.72,0,0,1-1.17-.24,2.5,2.5,0,0,1-.85-.65,2.92,2.92,0,0,1-.52-1,3.93,3.93,0,0,1,0-2.35,2.78,2.78,0,0,1,.52-1,2.41,2.41,0,0,1,.85-.66,2.58,2.58,0,0,1,1.17-.25,2.52,2.52,0,0,1,1.56.49,2.15,2.15,0,0,1,.77,1.49h-.71A1.92,1.92,0,0,0,85.63,55.55Z"/><path class="cls-1" d="M89.22,52.55v1.13h-.7V52.55Zm0,2.21v5.75h-.7V54.76Z"/><path class="cls-1" d="M91.33,55.65a1.66,1.66,0,0,1,.48-.6,2.2,2.2,0,0,1,.72-.35,3.66,3.66,0,0,1,.91-.11,3.84,3.84,0,0,1,.76.08,1.62,1.62,0,0,1,.68.27,1.5,1.5,0,0,1,.49.56,2,2,0,0,1,.19.94V59.5a.37.37,0,0,0,.41.42.56.56,0,0,0,.23,0v.59l-.22,0h-.24a1,1,0,0,1-.43-.07.58.58,0,0,1-.25-.21.77.77,0,0,1-.12-.31,2.63,2.63,0,0,1,0-.41h0a3.33,3.33,0,0,1-.38.49,1.92,1.92,0,0,1-.44.37,2.18,2.18,0,0,1-.54.22,3.13,3.13,0,0,1-.73.08,2.68,2.68,0,0,1-.76-.1,1.66,1.66,0,0,1-.61-.3,1.42,1.42,0,0,1-.41-.52,1.73,1.73,0,0,1-.15-.75,1.49,1.49,0,0,1,.27-1,1.68,1.68,0,0,1,.7-.51,4.18,4.18,0,0,1,1-.26L94,57.15l.39-.06a.56.56,0,0,0,.27-.12.47.47,0,0,0,.18-.23,1,1,0,0,0,.06-.37,1.26,1.26,0,0,0-.12-.59.93.93,0,0,0-.32-.36,1.26,1.26,0,0,0-.48-.18,2.74,2.74,0,0,0-.59-.06,1.78,1.78,0,0,0-1.09.32,1.23,1.23,0,0,0-.44,1h-.71A2.53,2.53,0,0,1,91.33,55.65Zm3.51,1.72a.44.44,0,0,1-.26.18l-.33.07c-.3.06-.61.1-.92.14a5.1,5.1,0,0,0-.87.19,1.71,1.71,0,0,0-.64.35.82.82,0,0,0-.25.65,1.06,1.06,0,0,0,.11.48,1.17,1.17,0,0,0,.28.35,1.27,1.27,0,0,0,.41.23,1.61,1.61,0,0,0,.48.08,2.43,2.43,0,0,0,.77-.12A1.83,1.83,0,0,0,94.7,59a1.81,1.81,0,0,0,.16-.76v-.91Z"/><path class="cls-1" d="M98.29,52.55v8h-.7v-8Z"/><path class="cls-1" d="M60.32,72.29a1.55,1.55,0,0,0,.55.66,2.15,2.15,0,0,0,.83.35,4.76,4.76,0,0,0,1,.11,2.83,2.83,0,0,0,.68-.09,2.33,2.33,0,0,0,.69-.28,1.72,1.72,0,0,0,.53-.51,1.27,1.27,0,0,0,.21-.74,1.11,1.11,0,0,0-.15-.58,1.38,1.38,0,0,0-.39-.41,2.4,2.4,0,0,0-.53-.27q-.28-.11-.57-.18l-1.77-.43a4.78,4.78,0,0,1-.67-.22,1.89,1.89,0,0,1-.58-.36,1.71,1.71,0,0,1-.39-.55,1.85,1.85,0,0,1-.16-.79,2.38,2.38,0,0,1,.12-.68,1.76,1.76,0,0,1,.42-.73A2.37,2.37,0,0,1,61,66a3.33,3.33,0,0,1,1.37-.24,4.1,4.1,0,0,1,1.12.16,2.68,2.68,0,0,1,.94.47,2.28,2.28,0,0,1,.64.77,2.32,2.32,0,0,1,.24,1.08h-.76a1.82,1.82,0,0,0-.2-.8,1.92,1.92,0,0,0-.48-.57,2.28,2.28,0,0,0-.68-.34,2.74,2.74,0,0,0-.81-.12,3.67,3.67,0,0,0-.75.08,2,2,0,0,0-.64.27,1.36,1.36,0,0,0-.44.48,1.57,1.57,0,0,0-.17.75,1.22,1.22,0,0,0,.1.49,1.1,1.1,0,0,0,.26.35,1.33,1.33,0,0,0,.38.23,3.23,3.23,0,0,0,.47.15l1.94.48a4.89,4.89,0,0,1,.79.27,2.7,2.7,0,0,1,.66.4,1.75,1.75,0,0,1,.45.59,1.92,1.92,0,0,1,.16.83,2.87,2.87,0,0,1,0,.36,1.85,1.85,0,0,1-.13.47,2.26,2.26,0,0,1-.3.51,1.77,1.77,0,0,1-.54.46,3.27,3.27,0,0,1-.84.34,5.23,5.23,0,0,1-1.2.12,5,5,0,0,1-1.31-.16,2.69,2.69,0,0,1-1-.49,2.26,2.26,0,0,1-.66-.86,2.89,2.89,0,0,1-.19-1.26h.76A2.09,2.09,0,0,0,60.32,72.29Z"/><path class="cls-1" d="M67.8,72a2.12,2.12,0,0,0,.34.73,2,2,0,0,0,.59.53,1.59,1.59,0,0,0,.86.21,1.69,1.69,0,0,0,1.2-.4,2,2,0,0,0,.6-1.07h.71a2.8,2.8,0,0,1-.82,1.52,2.43,2.43,0,0,1-1.69.53,2.57,2.57,0,0,1-1.18-.24,2.05,2.05,0,0,1-.8-.65,2.83,2.83,0,0,1-.47-1A4.47,4.47,0,0,1,67,71a4.13,4.13,0,0,1,.15-1.11,3,3,0,0,1,.47-1,2.34,2.34,0,0,1,.8-.69A2.57,2.57,0,0,1,69.59,68a2.29,2.29,0,0,1,2,1A3.09,3.09,0,0,1,72,70a4.76,4.76,0,0,1,.11,1.19H67.69A3.13,3.13,0,0,0,67.8,72Zm3.48-2.15a2.41,2.41,0,0,0-.36-.65,2,2,0,0,0-.57-.46,1.73,1.73,0,0,0-.76-.17,1.71,1.71,0,0,0-.77.17,2,2,0,0,0-.57.46,2.35,2.35,0,0,0-.37.66,3.39,3.39,0,0,0-.19.76h3.73A2.9,2.9,0,0,0,71.28,69.84Z"/><path class="cls-1" d="M74.34,68.14v1.35h0a2.3,2.3,0,0,1,.83-1.09,2.2,2.2,0,0,1,1.34-.34v.7a2.13,2.13,0,0,0-.86.13,1.84,1.84,0,0,0-.68.43,1.78,1.78,0,0,0-.44.66,2.32,2.32,0,0,0-.16.84v3.07h-.7V68.14Z"/><path class="cls-1" d="M78,68.14l1.81,5h0l1.78-5h.73l-2.16,5.75H79.4l-2.22-5.75Z"/><path class="cls-1" d="M84.33,65.93v1.13h-.71V65.93Zm0,2.21v5.75h-.71V68.14Z"/><path class="cls-1" d="M89.82,68.93a1.5,1.5,0,0,0-1.09-.37,1.76,1.76,0,0,0-.88.21,2,2,0,0,0-.63.56,2.32,2.32,0,0,0-.38.79,3.15,3.15,0,0,0,0,1.79,2.41,2.41,0,0,0,.38.79,2,2,0,0,0,.63.55,1.66,1.66,0,0,0,.88.21,1.58,1.58,0,0,0,.61-.12,1.47,1.47,0,0,0,.51-.34,1.89,1.89,0,0,0,.55-1.17h.7a2.61,2.61,0,0,1-.77,1.63,2.23,2.23,0,0,1-1.6.58,2.58,2.58,0,0,1-1.17-.24,2.47,2.47,0,0,1-.85-.65,2.78,2.78,0,0,1-.52-1A3.79,3.79,0,0,1,86,71a3.72,3.72,0,0,1,.18-1.17,2.92,2.92,0,0,1,.52-1,2.78,2.78,0,0,1,.85-.66A2.72,2.72,0,0,1,88.73,68a2.44,2.44,0,0,1,1.56.49,2.09,2.09,0,0,1,.77,1.48h-.7A1.93,1.93,0,0,0,89.82,68.93Z"/><path class="cls-1" d="M93.23,72a2.12,2.12,0,0,0,.34.73,1.89,1.89,0,0,0,.59.53,1.55,1.55,0,0,0,.86.21,1.69,1.69,0,0,0,1.2-.4,2,2,0,0,0,.6-1.07h.7a2.8,2.8,0,0,1-.82,1.52A2.4,2.4,0,0,1,95,74a2.54,2.54,0,0,1-1.18-.24,2.16,2.16,0,0,1-.81-.65,2.81,2.81,0,0,1-.46-1A4.47,4.47,0,0,1,92.42,71a4.13,4.13,0,0,1,.15-1.11,3,3,0,0,1,.46-1,2.48,2.48,0,0,1,.81-.69A2.54,2.54,0,0,1,95,68a2.26,2.26,0,0,1,2,1,2.9,2.9,0,0,1,.44,1,4.76,4.76,0,0,1,.12,1.19H93.12A3.13,3.13,0,0,0,93.23,72Zm3.47-2.15a2,2,0,0,0-.36-.65,1.73,1.73,0,0,0-.57-.46,1.66,1.66,0,0,0-.75-.17,1.66,1.66,0,0,0-1.34.63,2.37,2.37,0,0,0-.38.66,3.36,3.36,0,0,0-.18.76h3.72A2.28,2.28,0,0,0,96.7,69.84Z"/><path class="cls-1" d="M65.26,80.89a2.14,2.14,0,0,0-.56-.6,2.49,2.49,0,0,0-.72-.38,3.11,3.11,0,0,0-2.19.18,2.65,2.65,0,0,0-.93.79A3.42,3.42,0,0,0,60.32,82a5.07,5.07,0,0,0-.17,1.29,5,5,0,0,0,.17,1.27,3.38,3.38,0,0,0,.54,1.13,2.65,2.65,0,0,0,.93.79,2.76,2.76,0,0,0,1.36.31A2.44,2.44,0,0,0,64.92,86a2.62,2.62,0,0,0,.52-.81,3.27,3.27,0,0,0,.26-1h.76a4.19,4.19,0,0,1-.35,1.33,3.3,3.3,0,0,1-.69,1,2.81,2.81,0,0,1-1,.64,3.42,3.42,0,0,1-1.27.22,3.71,3.71,0,0,1-1.65-.34,3.3,3.3,0,0,1-1.17-.91,4,4,0,0,1-.71-1.31,5.47,5.47,0,0,1,0-3.14,4.15,4.15,0,0,1,.71-1.33,3.42,3.42,0,0,1,1.17-.91,3.71,3.71,0,0,1,1.65-.34,3.48,3.48,0,0,1,1.11.17,3.22,3.22,0,0,1,1,.49,2.82,2.82,0,0,1,1.11,1.92h-.76A2.77,2.77,0,0,0,65.26,80.89Z"/><path class="cls-1" d="M71.69,81.59a2.53,2.53,0,0,1,.85.66,2.89,2.89,0,0,1,.53,1,4,4,0,0,1,0,2.36,3,3,0,0,1-.53,1,2.38,2.38,0,0,1-.85.65,2.67,2.67,0,0,1-1.16.24,2.72,2.72,0,0,1-1.17-.24,2.38,2.38,0,0,1-.85-.65,2.79,2.79,0,0,1-.52-1,4,4,0,0,1,0-2.36,2.71,2.71,0,0,1,.52-1,2.53,2.53,0,0,1,.85-.66,2.72,2.72,0,0,1,1.17-.24A2.67,2.67,0,0,1,71.69,81.59Zm-2,.56a1.8,1.8,0,0,0-.63.56,2.36,2.36,0,0,0-.38.78,3.18,3.18,0,0,0,0,1.8,2.36,2.36,0,0,0,.38.78,1.8,1.8,0,0,0,.63.56,1.76,1.76,0,0,0,.88.21,1.82,1.82,0,0,0,.88-.21,2,2,0,0,0,.63-.56,2.83,2.83,0,0,0,.38-.78,3.44,3.44,0,0,0,0-1.8,2.83,2.83,0,0,0-.38-.78,2,2,0,0,0-.63-.56,1.82,1.82,0,0,0-.88-.21A1.76,1.76,0,0,0,69.65,82.15Z"/><path class="cls-1" d="M75.55,81.51v1h0a2.19,2.19,0,0,1,.73-.83,2,2,0,0,1,1.15-.3,2,2,0,0,1,1,.27,1.36,1.36,0,0,1,.62.85,1.76,1.76,0,0,1,.76-.85A2.21,2.21,0,0,1,81,81.35c1.27,0,1.9.67,1.9,2v3.9h-.7V83.4a1.71,1.71,0,0,0-.3-1.09,1.28,1.28,0,0,0-1.06-.37,1.58,1.58,0,0,0-.76.17,1.41,1.41,0,0,0-.48.46,2.33,2.33,0,0,0-.25.67,4.69,4.69,0,0,0-.07.77v3.25h-.7v-3.9a2.51,2.51,0,0,0-.06-.55,1.46,1.46,0,0,0-.2-.46,1,1,0,0,0-.38-.3,1.19,1.19,0,0,0-.56-.11,1.73,1.73,0,0,0-.78.16,1.35,1.35,0,0,0-.53.44,2.16,2.16,0,0,0-.31.67,3.22,3.22,0,0,0-.1.84v3.21h-.7V81.51Z"/><path class="cls-1" d="M85.45,81.51v1h0a2.21,2.21,0,0,1,.74-.83,2,2,0,0,1,1.15-.3,2,2,0,0,1,1,.27,1.4,1.4,0,0,1,.62.85,1.76,1.76,0,0,1,.76-.85,2.21,2.21,0,0,1,1.07-.27c1.27,0,1.9.67,1.9,2v3.9h-.7V83.4a1.71,1.71,0,0,0-.3-1.09,1.28,1.28,0,0,0-1.06-.37,1.55,1.55,0,0,0-.76.17,1.41,1.41,0,0,0-.48.46,2.07,2.07,0,0,0-.25.67,3.8,3.8,0,0,0-.07.77v3.25h-.7v-3.9a2.51,2.51,0,0,0-.06-.55,1.73,1.73,0,0,0-.2-.46,1,1,0,0,0-.38-.3,1.21,1.21,0,0,0-.57-.11,1.71,1.71,0,0,0-.77.16,1.46,1.46,0,0,0-.54.44,2.15,2.15,0,0,0-.3.67,3.22,3.22,0,0,0-.1.84v3.21H84.8V81.51Z"/><path class="cls-1" d="M95.42,79.31v1.12h-.71V79.31Zm0,2.2v5.75h-.71V81.51Z"/><path class="cls-1" d="M100.69,82.63a1,1,0,0,0-.33-.39,1.37,1.37,0,0,0-.47-.23,2.12,2.12,0,0,0-.57-.07,2,2,0,0,0-.48,0,1.65,1.65,0,0,0-.44.16,1.05,1.05,0,0,0-.32.31.86.86,0,0,0-.12.47.69.69,0,0,0,.11.39,1.15,1.15,0,0,0,.3.28,2.32,2.32,0,0,0,.39.18l.39.12.94.21a2.46,2.46,0,0,1,.59.16,2,2,0,0,1,.53.31,1.57,1.57,0,0,1,.37.47,1.33,1.33,0,0,1,.14.65,1.44,1.44,0,0,1-.21.8A1.74,1.74,0,0,1,101,87a2.43,2.43,0,0,1-.74.29,3.79,3.79,0,0,1-.81.09,2.65,2.65,0,0,1-1.65-.48,2,2,0,0,1-.72-1.54h.71a1.4,1.4,0,0,0,.51,1.08,1.9,1.9,0,0,0,1.18.36,3.27,3.27,0,0,0,.53,0,1.84,1.84,0,0,0,.51-.19,1.38,1.38,0,0,0,.38-.34.85.85,0,0,0,.15-.51.83.83,0,0,0-.1-.43,1,1,0,0,0-.29-.29,2.13,2.13,0,0,0-.4-.2l-.47-.13-.9-.2a5.34,5.34,0,0,1-.64-.21,1.64,1.64,0,0,1-.5-.29,1.07,1.07,0,0,1-.34-.42,1.42,1.42,0,0,1-.13-.62,1.34,1.34,0,0,1,.2-.74,1.44,1.44,0,0,1,.51-.5,2.09,2.09,0,0,1,.69-.28,3.44,3.44,0,0,1,.77-.09,2.65,2.65,0,0,1,.81.11,1.84,1.84,0,0,1,.65.34,1.71,1.71,0,0,1,.45.58,1.87,1.87,0,0,1,.19.82h-.7A1.41,1.41,0,0,0,100.69,82.63Z"/><path class="cls-1" d="M106.66,82.63a1,1,0,0,0-.33-.39,1.22,1.22,0,0,0-.47-.23,2.12,2.12,0,0,0-.57-.07,1.93,1.93,0,0,0-.47,0,1.54,1.54,0,0,0-.44.16,1.09,1.09,0,0,0-.33.31.86.86,0,0,0-.12.47.62.62,0,0,0,.12.39,1.28,1.28,0,0,0,.29.28,2.32,2.32,0,0,0,.39.18l.39.12.94.21a2.67,2.67,0,0,1,.6.16,1.94,1.94,0,0,1,.52.31,1.43,1.43,0,0,1,.37.47,1.33,1.33,0,0,1,.15.65,1.44,1.44,0,0,1-.21.8A1.74,1.74,0,0,1,107,87a2.54,2.54,0,0,1-.74.29,3.88,3.88,0,0,1-.82.09,2.64,2.64,0,0,1-1.64-.48A2,2,0,0,1,103,85.4h.7a1.38,1.38,0,0,0,.52,1.08,1.9,1.9,0,0,0,1.18.36,3.38,3.38,0,0,0,.53,0,1.67,1.67,0,0,0,.5-.19,1.29,1.29,0,0,0,.39-.34.85.85,0,0,0,.15-.51.83.83,0,0,0-.11-.43,1,1,0,0,0-.28-.29,2.23,2.23,0,0,0-.41-.2l-.46-.13-.91-.2a5.17,5.17,0,0,1-.63-.21,1.83,1.83,0,0,1-.51-.29,1.17,1.17,0,0,1-.34-.42,1.59,1.59,0,0,1,.07-1.36,1.52,1.52,0,0,1,.51-.5,2.06,2.06,0,0,1,.7-.28,3.35,3.35,0,0,1,.76-.09,2.65,2.65,0,0,1,.81.11,1.88,1.88,0,0,1,.66.34,1.71,1.71,0,0,1,.45.58,2.2,2.2,0,0,1,.19.82h-.7A1.41,1.41,0,0,0,106.66,82.63Z"/><path class="cls-1" d="M110,79.31v1.12h-.7V79.31Zm0,2.2v5.75h-.7V81.51Z"/><path class="cls-1" d="M115.6,81.59a2.63,2.63,0,0,1,.85.66,2.87,2.87,0,0,1,.52,1,4,4,0,0,1,0,2.36,3,3,0,0,1-.52,1,2.47,2.47,0,0,1-.85.65,2.72,2.72,0,0,1-1.17.24,2.64,2.64,0,0,1-1.16-.24,2.42,2.42,0,0,1-.86-.65,3,3,0,0,1-.52-1,4,4,0,0,1,0-2.36,2.87,2.87,0,0,1,.52-1,2.57,2.57,0,0,1,.86-.66,2.64,2.64,0,0,1,1.16-.24A2.72,2.72,0,0,1,115.6,81.59Zm-2,.56a2,2,0,0,0-.63.56,2.57,2.57,0,0,0-.38.78,3.18,3.18,0,0,0,0,1.8,2.57,2.57,0,0,0,.38.78,2,2,0,0,0,.63.56,1.79,1.79,0,0,0,.88.21,1.76,1.76,0,0,0,.88-.21,2,2,0,0,0,.63-.56,2.57,2.57,0,0,0,.38-.78,3.18,3.18,0,0,0,0-1.8,2.57,2.57,0,0,0-.38-.78,2,2,0,0,0-.63-.56,1.76,1.76,0,0,0-.88-.21A1.79,1.79,0,0,0,113.55,82.15Z"/><path class="cls-1" d="M119.5,81.51v1h0a1.72,1.72,0,0,1,.71-.85,2.1,2.1,0,0,1,1.12-.31,2.91,2.91,0,0,1,1,.15,1.63,1.63,0,0,1,.65.44,1.6,1.6,0,0,1,.35.7,3.71,3.71,0,0,1,.1.92v3.7h-.7V83.68a3,3,0,0,0-.07-.69,1.37,1.37,0,0,0-.23-.55,1.1,1.1,0,0,0-.45-.37,1.67,1.67,0,0,0-.71-.13,1.79,1.79,0,0,0-.75.15,1.66,1.66,0,0,0-.56.41,2.1,2.1,0,0,0-.36.62,2.84,2.84,0,0,0-.14.79v3.35h-.7V81.51Z"/></g></g></svg>